<svg id="icons" xmlns="http://www.w3.org/2000/svg" xmlns:xlink="http://www.w3.org/1999/xlink" viewBox="0 0 17 17"><defs><style>.cls-1,.cls-2{fill:none;}.cls-1{clip-rule:evenodd;}.cls-3{clip-path:url(#clip-path);}.cls-4{clip-path:url(#clip-path-2);}.cls-5{fill:#ffffff;}.cls-6{clip-path:url(#clip-path-3);}.cls-7{clip-path:url(#clip-path-4);}</style><clipPath id="clip-path"><path class="cls-1" d="M8.5,16A7.5,7.5,0,1,1,16,8.5,7.51,7.51,0,0,1,8.5,16Zm0-16A8.5,8.5,0,1,0,17,8.5,8.5,8.5,0,0,0,8.5,0Z"/></clipPath><clipPath id="clip-path-2"><rect class="cls-2" width="17" height="17"/></clipPath><clipPath id="clip-path-3"><path class="cls-1" d="M7.77,12.31a0.73,0.73,0,1,0,.73-0.73A0.73,0.73,0,0,0,7.77,12.31ZM7.7,9.39a1.37,1.37,0,0,0,.52,1.07L9,10.12a0.88,0.88,0,0,1-.36-0.65A1.84,1.84,0,0,1,9.75,8.15,2.6,2.6,0,0,0,11.23,6c0-1.14-1-2-2.59-2A3.51,3.51,0,0,0,5.77,5.31L6.43,6a2.46,2.46,0,0,1,2.1-1.08,1.33,1.33,0,0,1,1.56,1.23A1.88,1.88,0,0,1,9,7.61,2.26,2.26,0,0,0,7.7,9.39Z"/></clipPath><clipPath id="clip-path-4"><rect class="cls-2" x="-0.14" y="-0.31" width="17" height="17"/></clipPath></defs><title>support</title><g class="cls-3"><g class="cls-4"><rect class="cls-5" x="-5" y="-5" width="27" height="27"/></g></g><g class="cls-6"><g class="cls-7"><rect class="cls-5" x="0.77" y="-1.04" width="15.46" height="19.08"/></g></g></svg>