<svg id="icons" xmlns="http://www.w3.org/2000/svg" xmlns:xlink="http://www.w3.org/1999/xlink" viewBox="0 0 65 65"><defs><style>.cls-1,.cls-2{fill:none;}.cls-2{clip-rule:evenodd;}.cls-3{clip-path:url(#clip-path);}.cls-4{clip-path:url(#clip-path-2);}.cls-5{clip-path:url(#clip-path-3);}.cls-6{clip-path:url(#clip-path-4);}.cls-7{clip-path:url(#clip-path-5);}.cls-8{clip-path:url(#clip-path-6);}.cls-9{fill:#fff;}.cls-10{clip-path:url(#clip-path-7);}.cls-11{fill:#1493ff;}.cls-12{clip-path:url(#clip-path-9);}.cls-13{clip-path:url(#clip-path-11);}.cls-14{clip-path:url(#clip-path-13);}.cls-15{clip-path:url(#clip-path-14);}.cls-16{clip-path:url(#clip-path-15);}.cls-17{clip-path:url(#clip-path-16);}.cls-18{clip-path:url(#clip-path-17);}.cls-19{clip-path:url(#clip-path-18);}.cls-20{clip-path:url(#clip-path-19);}.cls-21{clip-path:url(#clip-path-20);}.cls-22{clip-path:url(#clip-path-21);}.cls-23{clip-path:url(#clip-path-22);}.cls-24{clip-path:url(#clip-path-23);}.cls-25{clip-path:url(#clip-path-24);}.cls-26{clip-path:url(#clip-path-25);}.cls-27{clip-path:url(#clip-path-26);}.cls-28{clip-path:url(#clip-path-27);}.cls-29{clip-path:url(#clip-path-28);}.cls-30{clip-path:url(#clip-path-29);}</style><clipPath id="clip-path"><circle class="cls-1" cx="-50.5" cy="32.5" r="32.5"/></clipPath><clipPath id="clip-path-2"><circle class="cls-1" cx="-50.5" cy="32.5" r="29.5"/></clipPath><clipPath id="clip-path-3"><path class="cls-2" d="M-41.62,43a0.81,0.81,0,0,1-.81.81H-58.58A0.81,0.81,0,0,1-59.38,43V30.12a0.81,0.81,0,0,1,.81-0.81h16.15a0.81,0.81,0,0,1,.81.81V43ZM-54.54,23.65a4,4,0,0,1,4-4,4,4,0,0,1,4,4v4h-8.08v-4Zm12.12,4h-2.42v-4A5.66,5.66,0,0,0-50.5,18a5.66,5.66,0,0,0-5.65,5.65v4h-2.42A2.43,2.43,0,0,0-61,30.12V43a2.43,2.43,0,0,0,2.42,2.42h16.15A2.43,2.43,0,0,0-40,43V30.12A2.43,2.43,0,0,0-42.42,27.69Z"/></clipPath><clipPath id="clip-path-4"><path class="cls-2" d="M-50.5,35.77A0.81,0.81,0,0,1-51.31,35a0.81,0.81,0,0,1,.81-0.81,0.81,0.81,0,0,1,.81.81A0.81,0.81,0,0,1-50.5,35.77Zm0-3.23A2.43,2.43,0,0,0-52.92,35a2.42,2.42,0,0,0,1.62,2.27v2.57a0.81,0.81,0,0,0,.81.81,0.81,0.81,0,0,0,.81-0.81V37.24A2.42,2.42,0,0,0-48.08,35,2.43,2.43,0,0,0-50.5,32.54Z"/></clipPath><clipPath id="clip-path-5"><circle class="cls-1" cx="32.5" cy="32.5" r="32.5"/></clipPath><clipPath id="clip-path-6"><rect class="cls-1" x="-111" y="-67" width="555" height="244"/></clipPath><clipPath id="clip-path-7"><circle class="cls-1" cx="32.5" cy="32.5" r="29.5"/></clipPath><clipPath id="clip-path-9"><path class="cls-2" d="M32.5,45.29A12.79,12.79,0,1,1,45.29,32.5,12.81,12.81,0,0,1,32.5,45.29ZM32.5,18A14.5,14.5,0,1,0,47,32.5,14.5,14.5,0,0,0,32.5,18Z"/></clipPath><clipPath id="clip-path-11"><path class="cls-2" d="M38.67,26.84l-7.93,9.52L26.28,31.9a0.85,0.85,0,1,0-1.21,1.21l5.12,5.12a0.85,0.85,0,0,0,.6.25h0a0.85,0.85,0,0,0,.62-0.31L40,27.93A0.85,0.85,0,1,0,38.67,26.84Z"/></clipPath><clipPath id="clip-path-13"><circle class="cls-1" cx="117.5" cy="32.5" r="32.5"/></clipPath><clipPath id="clip-path-14"><circle class="cls-1" cx="117.5" cy="32.5" r="29.5"/></clipPath><clipPath id="clip-path-15"><path class="cls-2" d="M127.57,25l-2.23.35V38.15l2.23,0.35a1.72,1.72,0,0,1,.83.3v-14A2.31,2.31,0,0,1,127.57,25Zm-20.08,3.75v6a0.75,0.75,0,0,0,.74.75l15.62,2.42V25.57L108.23,28A0.75,0.75,0,0,0,107.48,28.75Zm4.46,11.41,4.46,1.16v-3l-4.46-.64v2.51ZM128.31,40L117.9,38.5v3.75a0.8,0.8,0,0,1,0,.16,0.19,0.19,0,0,1,0,.07,0.8,0.8,0,0,1-.1.2l0,0.06a0.67,0.67,0,0,1-.16.14l-0.06,0-0.17.06-0.14,0H117.1a0.76,0.76,0,0,1-.17,0l-5.71-1.48a0.73,0.73,0,0,1-.74-0.65,0.87,0.87,0,0,1,0-.1V37.43l-3-.43A1.49,1.49,0,0,1,106,35.5V28a1.49,1.49,0,0,1,1.49-1.5l20.82-3V22h1.49V41.5h-1.49V40Z"/></clipPath><clipPath id="clip-path-16"><circle class="cls-1" cx="202.5" cy="32.5" r="32.5"/></clipPath><clipPath id="clip-path-17"><circle class="cls-1" cx="202.5" cy="32.5" r="29.5"/></clipPath><clipPath id="clip-path-18"><path class="cls-2" d="M192.65,33.65h14l-2.78,2.78a0.65,0.65,0,0,0,.92.91l3.88-3.88a0.67,0.67,0,0,0,.14-0.21,0.64,0.64,0,0,0,0-.49,0.62,0.62,0,0,0-.14-0.21l-3.88-3.88a0.65,0.65,0,0,0-.91.91l2.78,2.78h-14A0.65,0.65,0,1,0,192.65,33.65Z"/></clipPath><clipPath id="clip-path-19"><path class="cls-2" d="M192.65,25.88h6.2l-1.48,1.48a0.65,0.65,0,0,0,.92.91l2.59-2.59a0.67,0.67,0,0,0,.14-0.21,0.64,0.64,0,0,0,0-.49,0.62,0.62,0,0,0-.14-0.21l-2.59-2.59a0.65,0.65,0,0,0-.91.91l1.48,1.48h-6.2A0.65,0.65,0,0,0,192.65,25.88Z"/></clipPath><clipPath id="clip-path-20"><path class="cls-2" d="M212.06,22H203a0.65,0.65,0,1,0,0,1.29h9.06a0.65,0.65,0,0,1,.65.65V42.06a0.65,0.65,0,0,1-.65.65H203A0.65,0.65,0,1,0,203,44h9.06A1.94,1.94,0,0,0,214,42.06V23.94A1.94,1.94,0,0,0,212.06,22Z"/></clipPath><clipPath id="clip-path-21"><path class="cls-2" d="M201,40.52a0.62,0.62,0,0,0-.14-0.21l-2.59-2.59a0.65,0.65,0,1,0-.91.91l1.48,1.48h-6.2a0.65,0.65,0,1,0,0,1.29h6.2l-1.48,1.48a0.65,0.65,0,0,0,.92.91l2.59-2.59A0.67,0.67,0,0,0,201,41,0.66,0.66,0,0,0,201,40.52Z"/></clipPath><clipPath id="clip-path-22"><circle class="cls-1" cx="287.5" cy="32.5" r="32.5"/></clipPath><clipPath id="clip-path-23"><circle class="cls-1" cx="287.5" cy="32.5" r="29.5"/></clipPath><clipPath id="clip-path-24"><path class="cls-2" d="M288,19a4.91,4.91,0,1,0,4.91,4.91A4.91,4.91,0,0,0,288,19Zm0,1.64a3.27,3.27,0,1,1-3.27,3.27A3.28,3.28,0,0,1,288,20.64Z"/></clipPath><clipPath id="clip-path-25"><path class="cls-2" d="M294.88,28.82a2.29,2.29,0,0,0-.67.1l-5,1.58a4,4,0,0,1-2.39,0l-5-1.58a2.22,2.22,0,0,0-.67-0.1,2.08,2.08,0,0,0-2,1.32,2.13,2.13,0,0,0,.07,1.65L286,45.57a2.16,2.16,0,0,0,3.91,0l6.84-13.78a2.13,2.13,0,0,0,.07-1.65A2.08,2.08,0,0,0,294.88,28.82Zm-13.77,1.64,0.18,0,5,1.58a5.6,5.6,0,0,0,3.37,0l5-1.58,0.18,0a0.47,0.47,0,0,1,.45.25,0.49,0.49,0,0,1,0,.36l-6.86,13.82a0.5,0.5,0,0,1-.47.3,0.52,0.52,0,0,1-.49-0.34L280.69,31.1a0.5,0.5,0,0,1,0-.39A0.47,0.47,0,0,1,281.12,30.45Z"/></clipPath><clipPath id="clip-path-26"><circle class="cls-1" cx="372.5" cy="32.5" r="32.5"/></clipPath><clipPath id="clip-path-27"><circle class="cls-1" cx="372.5" cy="32.5" r="29.5"/></clipPath><clipPath id="clip-path-28"><path class="cls-2" d="M376.1,39l-3.1,3.1V35.17a0.72,0.72,0,0,0-1.44,0v6.92l-3.1-3.1a0.72,0.72,0,1,0-1,1l4.33,4.33a0.75,0.75,0,0,0,.24.16,0.72,0.72,0,0,0,.55,0,0.69,0.69,0,0,0,.24-0.16L377.12,40A0.72,0.72,0,0,0,376.1,39Z"/></clipPath><clipPath id="clip-path-29"><path class="cls-2" d="M377.33,30.84a0.72,0.72,0,0,1-.72.72h-8.67a0.72,0.72,0,0,1-.72-0.72V21.45h1.52a3.61,3.61,0,0,0,7.07,0h1.52v9.39Zm-3-9.39a2.15,2.15,0,0,1-4.07,0h4.07ZM383.83,20H360.72a0.72,0.72,0,0,0,0,1.44h5.06v9.39A2.17,2.17,0,0,0,367.94,33h8.67a2.17,2.17,0,0,0,2.17-2.17V21.45h5.06A0.72,0.72,0,1,0,383.83,20Z"/></clipPath></defs><title>support</title><g class="cls-7"><g class="cls-8"><rect class="cls-9" x="-5" y="-5" width="75" height="75"/></g></g><g class="cls-10"><g class="cls-8"><rect class="cls-11" x="-2" y="-2" width="69" height="69"/></g></g><g class="cls-12"><g class="cls-8"><rect class="cls-9" x="13" y="13" width="39" height="39"/></g></g><g class="cls-13"><g class="cls-8"><rect class="cls-9" x="19.82" y="21.53" width="25.35" height="21.94"/></g></g></svg>