<svg id="icons" xmlns="http://www.w3.org/2000/svg" xmlns:xlink="http://www.w3.org/1999/xlink" viewBox="0 0 17 17"><defs><style>.cls-1,.cls-2{fill:none;}.cls-1{clip-rule:evenodd;}.cls-3{clip-path:url(#clip-path);}.cls-4{clip-path:url(#clip-path-2);}.cls-5{fill:#ffffff;}</style><clipPath id="clip-path"><path class="cls-1" d="M15.87,11.33a0.57,0.57,0,0,1-.57.57H9.63a0.57,0.57,0,0,0-.47.25l-1.8,2.69-1.8-2.69A0.57,0.57,0,0,0,5.1,11.9H1.7a0.57,0.57,0,0,1-.57-0.57V2.26A0.57,0.57,0,0,1,1.7,1.7H15.3a0.57,0.57,0,0,1,.57.57v9.07ZM15.3,0.56H1.7A1.7,1.7,0,0,0,0,2.26v9.07A1.7,1.7,0,0,0,1.7,13H4.8l2.1,3.15a0.57,0.57,0,0,0,.94,0L9.94,13H15.3a1.7,1.7,0,0,0,1.7-1.7V2.26A1.7,1.7,0,0,0,15.3.56Z"/></clipPath><clipPath id="clip-path-2"><rect class="cls-2" y="-0.44" width="17" height="17"/></clipPath></defs><title>support</title><g class="cls-3"><g class="cls-4"><rect class="cls-5" x="-5" y="-4.44" width="27" height="25.87"/></g></g></svg>